{"title":"Highschool of the Dead (2010) The Complete Series BRRIP 1080P UN","uid":13600178,"size":10430824198,"categoryP":"video","categoryS":"hd___tv_shows","magnet":"?xt=urn:btih:c015ea183f23e949014c89fd8f83f7ef84ea0fd1&amp;dn=Highschool+of+the+Dead+%282010%29+The+Complete+Series+BRRIP+1080P+UN&amp;tr=udp%3A%2F%2Ftracker.leechers-paradise.org%3A6969&amp;tr=udp%3A%2F%2Fzer0day.ch%3A1337&amp;tr=udp%3A%2F%2Fopen.demonii.com%3A1337&amp;tr=udp%3A%2F%2Ftracker.coppersurfer.tk%3A6969&amp;tr=udp%3A%2F%2Fexodus.desync.com%3A6969","seeders":0,"leechers":2,"uploader":"jmanwf","files":15,"time":1455852575,"description":"Storyline\r\n\r\nHighschool of the Dead is set in the present day, beginning as the world is struck by a deadly pandemic that turns humans into zombies, euphemistically referred to by the main characters as &quot;them&quot; since they are no longer considered human. The story follows a group of high school students, the high school's nurse, and a young girl as they fight their way to safety through the deadly streets of Japan during a worldwide catastrophic event known as the &quot;Outbreak&quot;. Led by sophomore Takashi Komuro, the focal group of survivors consists of six others and a small dog, and creating a gestalt team with one purpose: to survive.\r\n\r\n\r\n\r\n\r\nContains ALL 12 Episodes Of Season 1\r\n\r\n\r\n\r\nALL in MP4\r\n\r\n\r\n\r\nALL Have English And Japanese Audio\r\nVideo\r\nID : 1\r\nFormat : AVC\r\nFormat/Info : Advanced Video Codec\r\nFormat profile :   \r\nFormat settings, CABAC : Yes\r\nFormat settings, ReFrames : 4 frames\r\nCodec ID : avc1\r\nCodec ID/Info : Advanced Video Coding\r\nDuration : 25mn 13s\r\nBit rate : 3 831 Kbps\r\nWidth : 1 920 pixels\r\nHeight : 1 080 pixels\r\nDisplay aspect ratio : 16:9\r\nFrame rate mode : Constant\r\nFrame rate : 23.976 fps\r\nColor space : YUV\r\nChroma subsampling : 4:2:0\r\nBit depth : 8 bits\r\nScan type : Progressive\r\nBits/(Pixel*Frame) : 0.077\r\nStream size : 691 MiB (84%)\r\n\r\nAudio #1\r\nID : 2\r\nFormat : AAC\r\nFormat/Info : Advanced Audio Codec\r\nFormat profile : LC\r\nCodec ID : 40\r\nDuration : 25mn 13s\r\nBit rate mode : Variable\r\nBit rate : 529 Kbps\r\nMaximum bit rate : 576 Kbps\r\nChannel(s) : 2 channels\r\nChannel(s)_Original : 6 channels\r\nChannel positions : Front: L C R, Side: L R, LFE\r\nSampling rate : 48.0 KHz\r\nCompression mode : Lossy\r\nStream size : 96.2 MiB (12%)\r\nLanguage : English\r\n\r\nAudio #2\r\nID : 3\r\nFormat : AAC\r\nFormat/Info : Advanced Audio Codec\r\nFormat profile : LC\r\nCodec ID : 40\r\nDuration : 25mn 13s\r\nBit rate mode : Variable\r\nBit rate : 177 Kbps\r\nMaximum bit rate : 192 Kbps\r\nChannel(s) : 2 channels\r\nChannel positions : Front: L \r\nSampling rate : 48.0 KHz\r\nCompression mode : Lossy\r\nStream size : 32.0 MiB (4%)\r\nLanguage : Japanese\r\n\r\n\r\n\r\n \nhttp://www.imdb.com/title/tt1685401/","torrent":{"xt":"urn:btih:c015ea183f23e949014c89fd8f83f7ef84ea0fd1","amp;dn":"Highschool+of+the+Dead+%282010%29+The+Complete+Series+BRRIP+1080P+UN","amp;tr":["udp%3A%2F%2Ftracker.leechers-paradise.org%3A6969","udp%3A%2F%2Fzer0day.ch%3A1337","udp%3A%2F%2Fopen.demonii.com%3A1337","udp%3A%2F%2Ftracker.coppersurfer.tk%3A6969","udp%3A%2F%2Fexodus.desync.com%3A6969"],"infoHash":"c015ea183f23e949014c89fd8f83f7ef84ea0fd1","infoHashBuffer":{"type":"Buffer","data":[192,21,234,24,63,35,233,73,1,76,137,253,143,131,247,239,132,234,15,209]},"announce":[],"urlList":[]}}